<svg width="96" height="32" viewBox="0 0 96 32" fill="none" xmlns="http://www.w3.org/2000/svg">
<path fill-rule="evenodd" clip-rule="evenodd" d="M85.834 0V9.21659L90.5256 4.60829L85.834 0Z" fill="#00A575"/>
<path fill-rule="evenodd" clip-rule="evenodd" d="M95.2169 0V9.21659L90.5249 4.60829L95.2169 0Z" fill="white"/>
<path fill-rule="evenodd" clip-rule="evenodd" d="M18.619 4.55884L18.3367 4.81417L15.5759 14.1033L15.5621 14.1126L12.4667 4.80333L12.1875 4.55884H9.37547L9.09659 4.80333L6.02103 14.0468L5.96981 14.0195L5.95486 14.008L3.19743 4.81342L2.91518 4.55884H0.183928L0 4.80744L4.29577 17.8944L4.5997 18.1576H7.3089L7.61283 17.8944L10.6835 8.53086L10.7418 8.53124L13.8324 17.8947L14.1359 18.1576H16.8795L17.1834 17.8944L21.4792 4.80744L21.2953 4.55884H18.619Z" fill="white"/>
<path fill-rule="evenodd" clip-rule="evenodd" d="M32.1085 14.6106C31.3287 15.4184 30.3978 15.8158 29.2853 15.8158C28.1907 15.8158 27.3929 15.4139 26.6048 14.5975C25.8198 13.7851 25.4243 12.6947 25.4243 11.344C25.4243 9.99405 25.8198 8.90357 26.6048 8.09085C27.3929 7.27439 28.1907 6.87251 29.2853 6.87251C30.3978 6.87251 31.3287 7.2699 32.1085 8.07739C32.6177 8.60525 32.9601 9.25909 33.1362 10.0318V12.6561C32.9601 13.4292 32.6177 14.0827 32.1085 14.6106ZM33.5333 4.5588L33.2753 4.81263V6.16592L33.2312 6.21751C32.8768 5.76704 32.411 5.37526 31.8368 5.04516C31.7071 4.97039 31.5729 4.90011 31.4342 4.83432C30.6716 4.47319 29.8181 4.2915 28.8835 4.2915C27.1362 4.2915 25.6173 4.97301 24.3515 6.32481C23.0894 7.67174 22.4531 9.35438 22.4531 11.3439C22.4531 13.3335 23.0894 15.0162 24.3515 16.3631C25.6173 17.7153 27.1362 18.3964 28.8835 18.3964C29.8114 18.3964 30.66 18.2169 31.4192 17.8599C31.5677 17.79 31.7112 17.7153 31.8499 17.6349C32.3998 17.3156 32.8492 16.9395 33.195 16.5085C33.2073 16.4962 33.2634 16.5179 33.2753 16.5048V17.9044L33.5333 18.1575H35.8373L36.0952 17.9044V4.81263L35.8373 4.5588H33.5333Z" fill="white"/>
<path fill-rule="evenodd" clip-rule="evenodd" d="M49.0037 4.55884L48.7069 4.80258L44.9199 14.4853L44.8878 14.5085L41.1434 4.80408L40.8466 4.55884H38.0854L37.918 4.80258L43.3083 17.9041L43.6265 18.1576H46.1155L46.4329 17.9052L51.8782 4.80333L51.7107 4.55884H49.0037Z" fill="white"/>
<path fill-rule="evenodd" clip-rule="evenodd" d="M55.6312 9.66827C56.078 8.06526 57.4432 6.87907 59.2399 6.87907C61.6141 6.87907 62.6003 8.52732 62.8807 9.66827H55.6312ZM65.6463 12.0941L65.9042 11.8451L65.9113 11.4545C65.9113 9.33219 65.2994 7.49889 64.0926 6.22485C62.881 4.94633 61.2481 4.2981 59.2402 4.2981C57.3019 4.2981 55.6861 5.00054 54.439 6.3856C53.1983 7.76357 52.5691 9.43163 52.5691 11.3442C52.5691 13.364 53.2177 15.0605 54.4973 16.3861C55.7796 17.7155 57.466 18.3903 59.5101 18.3903C60.9827 18.3903 62.2459 18.0381 63.2646 17.3443C64.2799 16.6527 65.3513 15.5211 65.717 13.9693L65.5173 13.7132H62.9947L62.6444 13.9652C62.0104 15.2123 61.0429 15.8022 59.4559 15.8022C58.4152 15.8022 57.4937 15.4396 56.7172 14.7248C55.9826 14.0493 55.5594 13.238 55.4574 12.0919L65.6463 12.0941Z" fill="white"/>
<path fill-rule="evenodd" clip-rule="evenodd" d="M67.976 8.34661C67.976 9.6756 68.4642 11.2506 71.7372 11.9945C71.7372 11.9945 73.2991 12.3336 74.5477 12.614C75.9686 12.9328 76.5649 13.4024 76.5649 14.2245C76.5649 14.9665 75.809 15.8559 73.8426 15.8559C72.0097 15.8559 70.9061 14.989 70.8549 13.9684L70.5368 13.7153H67.9573L67.7588 13.9714C67.9939 16.251 69.7113 18.392 73.825 18.392C78.4782 18.392 79.43 15.6009 79.43 14.1344C79.43 12.2001 78.2902 10.9111 75.3914 10.2917C75.3914 10.2917 73.8841 9.9814 72.6359 9.69766C71.4878 9.43672 70.9218 9.11223 70.9218 8.30848C70.9218 7.45875 71.7495 6.76229 73.52 6.76229C75.2527 6.76229 76.2172 7.5294 76.2172 8.19035L76.5197 8.45091H79.0423L79.2442 8.20381C79.2442 6.43443 77.6763 4.29907 73.5847 4.29907C69.3125 4.29907 67.976 6.75855 67.976 8.34661Z" fill="white"/>
<path fill-rule="evenodd" clip-rule="evenodd" d="M6.26157 27.2263V27.9766H3.77107V29.1411H6.12587V29.8914H3.77107V31.1658H6.26157V31.9161H2.84619V27.2263H6.26157Z" fill="white"/>
<path fill-rule="evenodd" clip-rule="evenodd" d="M11.5906 28.3392V31.9161H10.7173V27.2263H11.9207L13.7966 30.8036V27.2263H14.6699V31.9161H13.4665L11.5906 28.3392Z" fill="white"/>
<path fill-rule="evenodd" clip-rule="evenodd" d="M19.0024 27.9766V27.2263H22.819V27.9766H21.37V31.9161H20.4451V27.9766H19.0024Z" fill="white"/>
<path fill-rule="evenodd" clip-rule="evenodd" d="M30.567 27.2263V27.9766H28.0765V29.1411H30.4313V29.8914H28.0765V31.1658H30.567V31.9161H27.1516V27.2263H30.567Z" fill="white"/>
<path fill-rule="evenodd" clip-rule="evenodd" d="M35.9492 29.361H36.7126C37.4304 29.361 37.7478 29.1154 37.7478 28.6559C37.7478 28.1124 37.2947 27.9509 36.6674 27.9509H35.9492V29.361ZM35.9484 30.0791V31.9161H35.0232V27.2263H36.563C38.1089 27.2263 38.6976 27.6663 38.6976 28.6495C38.6976 29.1863 38.4326 29.6391 37.8502 29.8847L38.8917 31.9161H37.8632L36.9316 30.0791H35.9484Z" fill="white"/>
<path fill-rule="evenodd" clip-rule="evenodd" d="M44.2068 29.5487H44.9702C45.5459 29.5487 45.9986 29.4062 45.9986 28.7853C45.9986 28.0156 45.4098 27.9509 44.9055 27.9509H44.2068V29.5487ZM46.9501 28.7785C46.9501 29.9755 45.9927 30.2667 44.9123 30.2667H44.2072V31.9161H43.282V27.2263H44.8865C45.8502 27.2263 46.9501 27.362 46.9501 28.7785Z" fill="white"/>
<path fill-rule="evenodd" clip-rule="evenodd" d="M52.2209 29.361H52.9839C53.7021 29.361 54.0191 29.1154 54.0191 28.6559C54.0191 28.1124 53.5664 27.9509 52.9387 27.9509H52.2209V29.361ZM52.2207 30.0791V31.9161H51.2954V27.2263H52.8352C54.3811 27.2263 54.9699 27.6663 54.9699 28.6495C54.9699 29.1863 54.7048 29.6391 54.1224 29.8847L55.1639 31.9161H54.1351L53.2038 30.0791H52.2207Z" fill="white"/>
<path fill-rule="evenodd" clip-rule="evenodd" d="M59.5557 31.9164H60.4809V27.2266H59.5557V31.9164Z" fill="white"/>
<path fill-rule="evenodd" clip-rule="evenodd" d="M65.0463 28.5009C65.0463 27.5565 66.0493 27.1423 66.9159 27.1423C67.8863 27.1423 68.7144 27.7117 68.7596 28.6108H67.8669C67.7955 28.0609 67.317 27.8795 66.877 27.8795C66.4501 27.8795 65.9715 28.0414 65.9715 28.462C65.9715 28.7917 66.2497 28.973 66.625 29.044L67.2392 29.154C68.0026 29.2897 68.8434 29.594 68.8434 30.5644C68.8434 31.5282 67.8863 32 66.9416 32C65.7902 32 65.0269 31.379 64.9431 30.37H65.8355C65.9394 31.0557 66.4179 31.2628 66.9742 31.2628C67.3884 31.2628 67.9121 31.114 67.9121 30.6097C67.9121 30.2082 67.5435 30.0598 67.0456 29.9693L66.4501 29.859C65.6871 29.7102 65.0463 29.3158 65.0463 28.5009Z" fill="white"/>
<path fill-rule="evenodd" clip-rule="evenodd" d="M76.7084 27.2263V27.9766H74.2178V29.1411H76.5726V29.8914H74.2178V31.1658H76.7084V31.9161H73.293V27.2263H76.7084Z" fill="white"/>
</svg>
